<svg viewBox="0 0 1100 330" xmlns="http://www.w3.org/2000/svg" role="img" aria-label="Three seating layouts seen from above" style="font-family:'Inter','Helvetica Neue',Arial,sans-serif"><rect x="0.0" y="0.0" width="1100.0" height="330.0" rx="10" fill="#1b1815" stroke="none" stroke-width="1" /><rect x="12.0" y="12.0" width="350.0" height="306.0" rx="8" fill="#27221e" stroke="#3a322b" stroke-width="1" /><text x="26.0" y="36.0" font-size="14" fill="#eee1c8" text-anchor="start" font-weight="700" >American</text><path d="M37 256 A150 150 0 0 1 337 256 Z" fill="#171411" stroke="#3a322b"/><path d="M138.0 256 A49.0 49.0 0 0 1 236.0 256" fill="none" stroke="#3a322b" stroke-dasharray="2 5" opacity="0.7"/><path d="M120.0 256 A67.0 67.0 0 0 1 254.0 256" fill="none" stroke="#3a322b" stroke-dasharray="2 5" opacity="0.7"/><path d="M102.0 256 A85.0 85.0 0 0 1 272.0 256" fill="none" stroke="#3a322b" stroke-dasharray="2 5" opacity="0.7"/><path d="M84.0 256 A103.0 103.0 0 0 1 290.0 256" fill="none" stroke="#3a322b" stroke-dasharray="2 5" opacity="0.7"/><rect x="171" y="238" width="32" height="16" rx="3" fill="#342d27" stroke="#3a322b"/><circle cx="187" cy="246" r="4" fill="#a89a84"/><circle cx="148.9" cy="243.3" r="8" fill="#d39a5a" opacity="0.22"/><circle cx="148.9" cy="243.3" r="4" fill="#d39a5a" opacity="1.0"/><circle cx="147.2" cy="250.7" r="8" fill="#d39a5a" opacity="0.22"/><circle cx="147.2" cy="250.7" r="4" fill="#d39a5a" opacity="1.0"/><circle cx="158.3" cy="227.9" r="8" fill="#d39a5a" opacity="0.22"/><circle cx="158.3" cy="227.9" r="4" fill="#d39a5a" opacity="1.0"/><circle cx="153.5" cy="233.8" r="8" fill="#d39a5a" opacity="0.22"/><circle cx="153.5" cy="233.8" r="4" fill="#d39a5a" opacity="1.0"/><circle cx="131.3" cy="239.3" r="8" fill="#d39a5a" opacity="0.22"/><circle cx="131.3" cy="239.3" r="4" fill="#d39a5a" opacity="1.0"/><circle cx="129.6" cy="246.6" r="8" fill="#d39a5a" opacity="0.22"/><circle cx="129.6" cy="246.6" r="4" fill="#d39a5a" opacity="1.0"/><circle cx="144.3" cy="216.6" r="8" fill="#d39a5a" opacity="0.22"/><circle cx="144.3" cy="216.6" r="4" fill="#d39a5a" opacity="1.0"/><circle cx="139.5" cy="222.4" r="8" fill="#d39a5a" opacity="0.22"/><circle cx="139.5" cy="222.4" r="4" fill="#d39a5a" opacity="1.0"/><circle cx="112.4" cy="240.8" r="8" fill="#d39a5a" opacity="0.22"/><circle cx="112.4" cy="240.8" r="4" fill="#d39a5a" opacity="1.0"/><circle cx="111.3" cy="248.3" r="8" fill="#d39a5a" opacity="0.22"/><circle cx="111.3" cy="248.3" r="4" fill="#d39a5a" opacity="1.0"/><circle cx="120.3" cy="219.3" r="8" fill="#d39a5a" opacity="0.22"/><circle cx="120.3" cy="219.3" r="4" fill="#d39a5a" opacity="1.0"/><circle cx="117.0" cy="226.1" r="8" fill="#d39a5a" opacity="0.22"/><circle cx="117.0" cy="226.1" r="4" fill="#d39a5a" opacity="1.0"/><circle cx="134.3" cy="201.1" r="8" fill="#d39a5a" opacity="0.22"/><circle cx="134.3" cy="201.1" r="4" fill="#d39a5a" opacity="1.0"/><circle cx="129.1" cy="206.6" r="8" fill="#d39a5a" opacity="0.22"/><circle cx="129.1" cy="206.6" r="4" fill="#d39a5a" opacity="1.0"/><circle cx="104.2" cy="211.4" r="8" fill="#d39a5a" opacity="0.22"/><circle cx="104.2" cy="211.4" r="4" fill="#d39a5a" opacity="1.0"/><circle cx="100.9" cy="218.2" r="8" fill="#d39a5a" opacity="0.22"/><circle cx="100.9" cy="218.2" r="4" fill="#d39a5a" opacity="1.0"/><line x1="130.1" y1="228.3" x2="44.2" y2="204.0" stroke="#d39a5a" stroke-width="1" opacity="0.35"/><text x="57.7" y="194.6" font-size="10" fill="#d39a5a" text-anchor="middle" font-weight="600" >Violins I  16</text><circle cx="177.9" cy="216.9" r="8" fill="#e3c46e" opacity="0.22"/><circle cx="177.9" cy="216.9" r="4" fill="#e3c46e" opacity="1.0"/><circle cx="170.7" cy="219.3" r="8" fill="#e3c46e" opacity="0.22"/><circle cx="170.7" cy="219.3" r="4" fill="#e3c46e" opacity="1.0"/><circle cx="163.3" cy="202.9" r="8" fill="#e3c46e" opacity="0.22"/><circle cx="163.3" cy="202.9" r="4" fill="#e3c46e" opacity="1.0"/><circle cx="156.6" cy="206.4" r="8" fill="#e3c46e" opacity="0.22"/><circle cx="156.6" cy="206.4" r="4" fill="#e3c46e" opacity="1.0"/><circle cx="181.4" cy="198.1" r="8" fill="#e3c46e" opacity="0.22"/><circle cx="181.4" cy="198.1" r="4" fill="#e3c46e" opacity="1.0"/><circle cx="173.9" cy="199.4" r="8" fill="#e3c46e" opacity="0.22"/><circle cx="173.9" cy="199.4" r="4" fill="#e3c46e" opacity="1.0"/><circle cx="155.0" cy="187.0" r="8" fill="#e3c46e" opacity="0.22"/><circle cx="155.0" cy="187.0" r="4" fill="#e3c46e" opacity="1.0"/><circle cx="148.3" cy="190.5" r="8" fill="#e3c46e" opacity="0.22"/><circle cx="148.3" cy="190.5" r="4" fill="#e3c46e" opacity="1.0"/><circle cx="178.5" cy="180.4" r="8" fill="#e3c46e" opacity="0.22"/><circle cx="178.5" cy="180.4" r="4" fill="#e3c46e" opacity="1.0"/><circle cx="171.1" cy="181.6" r="8" fill="#e3c46e" opacity="0.22"/><circle cx="171.1" cy="181.6" r="4" fill="#e3c46e" opacity="1.0"/><circle cx="151.2" cy="169.0" r="8" fill="#e3c46e" opacity="0.22"/><circle cx="151.2" cy="169.0" r="4" fill="#e3c46e" opacity="1.0"/><circle cx="144.3" cy="172.2" r="8" fill="#e3c46e" opacity="0.22"/><circle cx="144.3" cy="172.2" r="4" fill="#e3c46e" opacity="1.0"/><circle cx="170.6" cy="163.4" r="8" fill="#e3c46e" opacity="0.22"/><circle cx="170.6" cy="163.4" r="4" fill="#e3c46e" opacity="1.0"/><circle cx="163.2" cy="165.0" r="8" fill="#e3c46e" opacity="0.22"/><circle cx="163.2" cy="165.0" r="4" fill="#e3c46e" opacity="1.0"/><line x1="164.7" y1="189.4" x2="138.8" y2="111.9" stroke="#e3c46e" stroke-width="1" opacity="0.35"/><text x="135.6" y="106.4" font-size="10" fill="#e3c46e" text-anchor="middle" font-weight="600" >Violins II  14</text><circle cx="203.3" cy="219.3" r="8" fill="#a3b47c" opacity="0.22"/><circle cx="203.3" cy="219.3" r="4" fill="#a3b47c" opacity="1.0"/><circle cx="196.1" cy="216.9" r="8" fill="#a3b47c" opacity="0.22"/><circle cx="196.1" cy="216.9" r="4" fill="#a3b47c" opacity="1.0"/><circle cx="209.0" cy="202.2" r="8" fill="#a3b47c" opacity="0.22"/><circle cx="209.0" cy="202.2" r="4" fill="#a3b47c" opacity="1.0"/><circle cx="201.8" cy="199.8" r="8" fill="#a3b47c" opacity="0.22"/><circle cx="201.8" cy="199.8" r="4" fill="#a3b47c" opacity="1.0"/><circle cx="203.6" cy="181.7" r="8" fill="#a3b47c" opacity="0.22"/><circle cx="203.6" cy="181.7" r="4" fill="#a3b47c" opacity="1.0"/><circle cx="196.1" cy="180.5" r="8" fill="#a3b47c" opacity="0.22"/><circle cx="196.1" cy="180.5" r="4" fill="#a3b47c" opacity="1.0"/><circle cx="225.2" cy="190.2" r="8" fill="#a3b47c" opacity="0.22"/><circle cx="225.2" cy="190.2" r="4" fill="#a3b47c" opacity="1.0"/><circle cx="218.4" cy="186.7" r="8" fill="#a3b47c" opacity="0.22"/><circle cx="218.4" cy="186.7" r="4" fill="#a3b47c" opacity="1.0"/><circle cx="211.3" cy="165.1" r="8" fill="#a3b47c" opacity="0.22"/><circle cx="211.3" cy="165.1" r="4" fill="#a3b47c" opacity="1.0"/><circle cx="203.9" cy="163.5" r="8" fill="#a3b47c" opacity="0.22"/><circle cx="203.9" cy="163.5" r="4" fill="#a3b47c" opacity="1.0"/><circle cx="229.2" cy="171.9" r="8" fill="#a3b47c" opacity="0.22"/><circle cx="229.2" cy="171.9" r="4" fill="#a3b47c" opacity="1.0"/><circle cx="222.3" cy="168.8" r="8" fill="#a3b47c" opacity="0.22"/><circle cx="222.3" cy="168.8" r="4" fill="#a3b47c" opacity="1.0"/><line x1="210.0" y1="187.2" x2="235.2" y2="111.9" stroke="#a3b47c" stroke-width="1" opacity="0.35"/><text x="238.4" y="106.4" font-size="10" fill="#a3b47c" text-anchor="middle" font-weight="600" >Violas  12</text><circle cx="220.2" cy="233.3" r="8" fill="#cf7f6d" opacity="0.22"/><circle cx="220.2" cy="233.3" r="4" fill="#cf7f6d" opacity="1.0"/><circle cx="215.3" cy="227.5" r="8" fill="#cf7f6d" opacity="0.22"/><circle cx="215.3" cy="227.5" r="4" fill="#cf7f6d" opacity="1.0"/><circle cx="226.8" cy="250.5" r="8" fill="#cf7f6d" opacity="0.22"/><circle cx="226.8" cy="250.5" r="4" fill="#cf7f6d" opacity="1.0"/><circle cx="225.1" cy="243.2" r="8" fill="#cf7f6d" opacity="0.22"/><circle cx="225.1" cy="243.2" r="4" fill="#cf7f6d" opacity="1.0"/><circle cx="234.0" cy="221.8" r="8" fill="#cf7f6d" opacity="0.22"/><circle cx="234.0" cy="221.8" r="4" fill="#cf7f6d" opacity="1.0"/><circle cx="229.2" cy="216.0" r="8" fill="#cf7f6d" opacity="0.22"/><circle cx="229.2" cy="216.0" r="4" fill="#cf7f6d" opacity="1.0"/><circle cx="244.3" cy="246.4" r="8" fill="#cf7f6d" opacity="0.22"/><circle cx="244.3" cy="246.4" r="4" fill="#cf7f6d" opacity="1.0"/><circle cx="242.6" cy="239.0" r="8" fill="#cf7f6d" opacity="0.22"/><circle cx="242.6" cy="239.0" r="4" fill="#cf7f6d" opacity="1.0"/><circle cx="256.7" cy="225.5" r="8" fill="#cf7f6d" opacity="0.22"/><circle cx="256.7" cy="225.5" r="4" fill="#cf7f6d" opacity="1.0"/><circle cx="253.3" cy="218.7" r="8" fill="#cf7f6d" opacity="0.22"/><circle cx="253.3" cy="218.7" r="4" fill="#cf7f6d" opacity="1.0"/><line x1="234.8" y1="232.2" x2="334.5" y2="219.2" stroke="#cf7f6d" stroke-width="1" opacity="0.35"/><text x="325.0" y="210.8" font-size="10" fill="#cf7f6d" text-anchor="middle" font-weight="600" >Cellos  10</text><circle cx="263.4" cy="201.1" r="8" fill="#86a6c0" opacity="0.22"/><circle cx="263.4" cy="201.1" r="4" fill="#86a6c0" opacity="1.0"/><circle cx="258.7" cy="195.1" r="8" fill="#86a6c0" opacity="0.22"/><circle cx="258.7" cy="195.1" r="4" fill="#86a6c0" opacity="1.0"/><circle cx="273.1" cy="218.2" r="8" fill="#86a6c0" opacity="0.22"/><circle cx="273.1" cy="218.2" r="4" fill="#86a6c0" opacity="1.0"/><circle cx="269.8" cy="211.4" r="8" fill="#86a6c0" opacity="0.22"/><circle cx="269.8" cy="211.4" r="4" fill="#86a6c0" opacity="1.0"/><circle cx="279.1" cy="236.9" r="8" fill="#86a6c0" opacity="0.22"/><circle cx="279.1" cy="236.9" r="4" fill="#86a6c0" opacity="1.0"/><circle cx="277.3" cy="229.6" r="8" fill="#86a6c0" opacity="0.22"/><circle cx="277.3" cy="229.6" r="4" fill="#86a6c0" opacity="1.0"/><circle cx="289.3" cy="210.3" r="8" fill="#86a6c0" opacity="0.22"/><circle cx="289.3" cy="210.3" r="4" fill="#86a6c0" opacity="1.0"/><circle cx="286.0" cy="203.5" r="8" fill="#86a6c0" opacity="0.22"/><circle cx="286.0" cy="203.5" r="4" fill="#86a6c0" opacity="1.0"/><line x1="274.6" y1="213.3" x2="300.0" y2="154.3" stroke="#86a6c0" stroke-width="1" opacity="0.35"/><text x="307.4" y="151.6" font-size="10" fill="#86a6c0" text-anchor="middle" font-weight="600" >Basses  8</text><text x="26.0" y="282.0" font-size="10.5" fill="#a89a84" text-anchor="start" font-weight="400" >Violins together on the left, low strings on the</text><text x="26.0" y="296.0" font-size="10.5" fill="#a89a84" text-anchor="start" font-weight="400" >right. The common film and US layout.</text><rect x="374.0" y="12.0" width="350.0" height="306.0" rx="8" fill="#27221e" stroke="#3a322b" stroke-width="1" /><text x="388.0" y="36.0" font-size="14" fill="#eee1c8" text-anchor="start" font-weight="700" >European (antiphonal)</text><path d="M399 256 A150 150 0 0 1 699 256 Z" fill="#171411" stroke="#3a322b"/><path d="M500.0 256 A49.0 49.0 0 0 1 598.0 256" fill="none" stroke="#3a322b" stroke-dasharray="2 5" opacity="0.7"/><path d="M482.0 256 A67.0 67.0 0 0 1 616.0 256" fill="none" stroke="#3a322b" stroke-dasharray="2 5" opacity="0.7"/><path d="M464.0 256 A85.0 85.0 0 0 1 634.0 256" fill="none" stroke="#3a322b" stroke-dasharray="2 5" opacity="0.7"/><path d="M446.0 256 A103.0 103.0 0 0 1 652.0 256" fill="none" stroke="#3a322b" stroke-dasharray="2 5" opacity="0.7"/><rect x="533" y="238" width="32" height="16" rx="3" fill="#342d27" stroke="#3a322b"/><circle cx="549" cy="246" r="4" fill="#a89a84"/><circle cx="514.3" cy="235.7" r="8" fill="#d39a5a" opacity="0.22"/><circle cx="514.3" cy="235.7" r="4" fill="#d39a5a" opacity="1.0"/><circle cx="511.2" cy="242.5" r="8" fill="#d39a5a" opacity="0.22"/><circle cx="511.2" cy="242.5" r="4" fill="#d39a5a" opacity="1.0"/><circle cx="493.2" cy="239.8" r="8" fill="#d39a5a" opacity="0.22"/><circle cx="493.2" cy="239.8" r="4" fill="#d39a5a" opacity="1.0"/><circle cx="491.6" cy="247.1" r="8" fill="#d39a5a" opacity="0.22"/><circle cx="491.6" cy="247.1" r="4" fill="#d39a5a" opacity="1.0"/><circle cx="505.3" cy="217.7" r="8" fill="#d39a5a" opacity="0.22"/><circle cx="505.3" cy="217.7" r="4" fill="#d39a5a" opacity="1.0"/><circle cx="500.7" cy="223.7" r="8" fill="#d39a5a" opacity="0.22"/><circle cx="500.7" cy="223.7" r="4" fill="#d39a5a" opacity="1.0"/><circle cx="474.4" cy="241.2" r="8" fill="#d39a5a" opacity="0.22"/><circle cx="474.4" cy="241.2" r="4" fill="#d39a5a" opacity="1.0"/><circle cx="473.3" cy="248.7" r="8" fill="#d39a5a" opacity="0.22"/><circle cx="473.3" cy="248.7" r="4" fill="#d39a5a" opacity="1.0"/><circle cx="481.7" cy="220.5" r="8" fill="#d39a5a" opacity="0.22"/><circle cx="481.7" cy="220.5" r="4" fill="#d39a5a" opacity="1.0"/><circle cx="478.5" cy="227.3" r="8" fill="#d39a5a" opacity="0.22"/><circle cx="478.5" cy="227.3" r="4" fill="#d39a5a" opacity="1.0"/><circle cx="494.7" cy="202.7" r="8" fill="#d39a5a" opacity="0.22"/><circle cx="494.7" cy="202.7" r="4" fill="#d39a5a" opacity="1.0"/><circle cx="489.7" cy="208.3" r="8" fill="#d39a5a" opacity="0.22"/><circle cx="489.7" cy="208.3" r="4" fill="#d39a5a" opacity="1.0"/><circle cx="461.2" cy="222.2" r="8" fill="#d39a5a" opacity="0.22"/><circle cx="461.2" cy="222.2" r="4" fill="#d39a5a" opacity="1.0"/><circle cx="458.8" cy="229.4" r="8" fill="#d39a5a" opacity="0.22"/><circle cx="458.8" cy="229.4" r="4" fill="#d39a5a" opacity="1.0"/><circle cx="470.6" cy="204.0" r="8" fill="#d39a5a" opacity="0.22"/><circle cx="470.6" cy="204.0" r="4" fill="#d39a5a" opacity="1.0"/><circle cx="466.7" cy="210.5" r="8" fill="#d39a5a" opacity="0.22"/><circle cx="466.7" cy="210.5" r="4" fill="#d39a5a" opacity="1.0"/><line x1="485.4" y1="226.3" x2="397.2" y2="248.0" stroke="#d39a5a" stroke-width="1" opacity="0.35"/><text x="419.7" y="241.5" font-size="10" fill="#d39a5a" text-anchor="middle" font-weight="600" >Violins I  16</text><circle cx="538.5" cy="217.2" r="8" fill="#cf7f6d" opacity="0.22"/><circle cx="538.5" cy="217.2" r="4" fill="#cf7f6d" opacity="1.0"/><circle cx="531.5" cy="219.9" r="8" fill="#cf7f6d" opacity="0.22"/><circle cx="531.5" cy="219.9" r="4" fill="#cf7f6d" opacity="1.0"/><circle cx="523.5" cy="203.8" r="8" fill="#cf7f6d" opacity="0.22"/><circle cx="523.5" cy="203.8" r="4" fill="#cf7f6d" opacity="1.0"/><circle cx="516.9" cy="207.5" r="8" fill="#cf7f6d" opacity="0.22"/><circle cx="516.9" cy="207.5" r="4" fill="#cf7f6d" opacity="1.0"/><circle cx="541.4" cy="198.4" r="8" fill="#cf7f6d" opacity="0.22"/><circle cx="541.4" cy="198.4" r="4" fill="#cf7f6d" opacity="1.0"/><circle cx="534.0" cy="199.9" r="8" fill="#cf7f6d" opacity="0.22"/><circle cx="534.0" cy="199.9" r="4" fill="#cf7f6d" opacity="1.0"/><circle cx="514.6" cy="188.1" r="8" fill="#cf7f6d" opacity="0.22"/><circle cx="514.6" cy="188.1" r="4" fill="#cf7f6d" opacity="1.0"/><circle cx="508.0" cy="191.9" r="8" fill="#cf7f6d" opacity="0.22"/><circle cx="508.0" cy="191.9" r="4" fill="#cf7f6d" opacity="1.0"/><circle cx="537.9" cy="180.7" r="8" fill="#cf7f6d" opacity="0.22"/><circle cx="537.9" cy="180.7" r="4" fill="#cf7f6d" opacity="1.0"/><circle cx="530.5" cy="182.2" r="8" fill="#cf7f6d" opacity="0.22"/><circle cx="530.5" cy="182.2" r="4" fill="#cf7f6d" opacity="1.0"/><line x1="527.7" y1="199.0" x2="495.8" y2="113.6" stroke="#cf7f6d" stroke-width="1" opacity="0.35"/><text x="492.3" y="108.3" font-size="10" fill="#cf7f6d" text-anchor="middle" font-weight="600" >Cellos  10</text><circle cx="565.3" cy="219.3" r="8" fill="#a3b47c" opacity="0.22"/><circle cx="565.3" cy="219.3" r="4" fill="#a3b47c" opacity="1.0"/><circle cx="558.1" cy="216.9" r="8" fill="#a3b47c" opacity="0.22"/><circle cx="558.1" cy="216.9" r="4" fill="#a3b47c" opacity="1.0"/><circle cx="561.6" cy="199.3" r="8" fill="#a3b47c" opacity="0.22"/><circle cx="561.6" cy="199.3" r="4" fill="#a3b47c" opacity="1.0"/><circle cx="554.1" cy="198.1" r="8" fill="#a3b47c" opacity="0.22"/><circle cx="554.1" cy="198.1" r="4" fill="#a3b47c" opacity="1.0"/><circle cx="579.8" cy="206.7" r="8" fill="#a3b47c" opacity="0.22"/><circle cx="579.8" cy="206.7" r="4" fill="#a3b47c" opacity="1.0"/><circle cx="573.1" cy="203.1" r="8" fill="#a3b47c" opacity="0.22"/><circle cx="573.1" cy="203.1" r="4" fill="#a3b47c" opacity="1.0"/><circle cx="564.3" cy="181.5" r="8" fill="#a3b47c" opacity="0.22"/><circle cx="564.3" cy="181.5" r="4" fill="#a3b47c" opacity="1.0"/><circle cx="556.8" cy="180.3" r="8" fill="#a3b47c" opacity="0.22"/><circle cx="556.8" cy="180.3" r="4" fill="#a3b47c" opacity="1.0"/><circle cx="588.3" cy="190.8" r="8" fill="#a3b47c" opacity="0.22"/><circle cx="588.3" cy="190.8" r="4" fill="#a3b47c" opacity="1.0"/><circle cx="581.6" cy="187.3" r="8" fill="#a3b47c" opacity="0.22"/><circle cx="581.6" cy="187.3" r="4" fill="#a3b47c" opacity="1.0"/><circle cx="582.4" cy="168.1" r="8" fill="#a3b47c" opacity="0.22"/><circle cx="582.4" cy="168.1" r="4" fill="#a3b47c" opacity="1.0"/><circle cx="575.2" cy="165.7" r="8" fill="#a3b47c" opacity="0.22"/><circle cx="575.2" cy="165.7" r="4" fill="#a3b47c" opacity="1.0"/><line x1="570.1" y1="193.1" x2="597.2" y2="111.9" stroke="#a3b47c" stroke-width="1" opacity="0.35"/><text x="600.4" y="106.4" font-size="10" fill="#a3b47c" text-anchor="middle" font-weight="600" >Violas  12</text><circle cx="586.7" cy="242.2" r="8" fill="#e3c46e" opacity="0.22"/><circle cx="586.7" cy="242.2" r="4" fill="#e3c46e" opacity="1.0"/><circle cx="583.5" cy="235.4" r="8" fill="#e3c46e" opacity="0.22"/><circle cx="583.5" cy="235.4" r="4" fill="#e3c46e" opacity="1.0"/><circle cx="596.9" cy="223.1" r="8" fill="#e3c46e" opacity="0.22"/><circle cx="596.9" cy="223.1" r="4" fill="#e3c46e" opacity="1.0"/><circle cx="592.2" cy="217.1" r="8" fill="#e3c46e" opacity="0.22"/><circle cx="592.2" cy="217.1" r="4" fill="#e3c46e" opacity="1.0"/><circle cx="606.4" cy="246.9" r="8" fill="#e3c46e" opacity="0.22"/><circle cx="606.4" cy="246.9" r="4" fill="#e3c46e" opacity="1.0"/><circle cx="604.7" cy="239.5" r="8" fill="#e3c46e" opacity="0.22"/><circle cx="604.7" cy="239.5" r="4" fill="#e3c46e" opacity="1.0"/><circle cx="607.6" cy="207.4" r="8" fill="#e3c46e" opacity="0.22"/><circle cx="607.6" cy="207.4" r="4" fill="#e3c46e" opacity="1.0"/><circle cx="602.5" cy="201.9" r="8" fill="#e3c46e" opacity="0.22"/><circle cx="602.5" cy="201.9" r="4" fill="#e3c46e" opacity="1.0"/><circle cx="619.2" cy="226.7" r="8" fill="#e3c46e" opacity="0.22"/><circle cx="619.2" cy="226.7" r="4" fill="#e3c46e" opacity="1.0"/><circle cx="616.0" cy="219.9" r="8" fill="#e3c46e" opacity="0.22"/><circle cx="616.0" cy="219.9" r="4" fill="#e3c46e" opacity="1.0"/><circle cx="624.7" cy="248.5" r="8" fill="#e3c46e" opacity="0.22"/><circle cx="624.7" cy="248.5" r="4" fill="#e3c46e" opacity="1.0"/><circle cx="623.6" cy="241.0" r="8" fill="#e3c46e" opacity="0.22"/><circle cx="623.6" cy="241.0" r="4" fill="#e3c46e" opacity="1.0"/><circle cx="635.5" cy="218.9" r="8" fill="#e3c46e" opacity="0.22"/><circle cx="635.5" cy="218.9" r="4" fill="#e3c46e" opacity="1.0"/><circle cx="632.2" cy="212.1" r="8" fill="#e3c46e" opacity="0.22"/><circle cx="632.2" cy="212.1" r="4" fill="#e3c46e" opacity="1.0"/><line x1="609.4" y1="227.2" x2="686.2" y2="190.6" stroke="#e3c46e" stroke-width="1" opacity="0.35"/><text x="675.4" y="180.3" font-size="10" fill="#e3c46e" text-anchor="middle" font-weight="600" >Violins II  14</text><circle cx="443.0" cy="219.6" r="8" fill="#86a6c0" opacity="0.22"/><circle cx="443.0" cy="219.6" r="4" fill="#86a6c0" opacity="1.0"/><circle cx="440.8" cy="226.9" r="8" fill="#86a6c0" opacity="0.22"/><circle cx="440.8" cy="226.9" r="4" fill="#86a6c0" opacity="1.0"/><circle cx="450.9" cy="201.8" r="8" fill="#86a6c0" opacity="0.22"/><circle cx="450.9" cy="201.8" r="4" fill="#86a6c0" opacity="1.0"/><circle cx="447.5" cy="208.5" r="8" fill="#86a6c0" opacity="0.22"/><circle cx="447.5" cy="208.5" r="4" fill="#86a6c0" opacity="1.0"/><circle cx="461.8" cy="185.6" r="8" fill="#86a6c0" opacity="0.22"/><circle cx="461.8" cy="185.6" r="4" fill="#86a6c0" opacity="1.0"/><circle cx="457.3" cy="191.6" r="8" fill="#86a6c0" opacity="0.22"/><circle cx="457.3" cy="191.6" r="4" fill="#86a6c0" opacity="1.0"/><circle cx="475.4" cy="171.5" r="8" fill="#86a6c0" opacity="0.22"/><circle cx="475.4" cy="171.5" r="4" fill="#86a6c0" opacity="1.0"/><circle cx="469.9" cy="176.7" r="8" fill="#86a6c0" opacity="0.22"/><circle cx="469.9" cy="176.7" r="4" fill="#86a6c0" opacity="1.0"/><line x1="455.8" y1="197.8" x2="423.0" y2="171.0" stroke="#86a6c0" stroke-width="1" opacity="0.35"/><text x="414.7" y="159.4" font-size="10" fill="#86a6c0" text-anchor="middle" font-weight="600" >Basses  8</text><text x="388.0" y="282.0" font-size="10.5" fill="#a89a84" text-anchor="start" font-weight="400" >Violins I and II face each other; cellos centre,</text><text x="388.0" y="296.0" font-size="10.5" fill="#a89a84" text-anchor="start" font-weight="400" >basses behind them on the left.</text><rect x="736.0" y="12.0" width="350.0" height="306.0" rx="8" fill="#27221e" stroke="#3a322b" stroke-width="1" /><text x="750.0" y="36.0" font-size="14" fill="#eee1c8" text-anchor="start" font-weight="700" >Chamber &amp; quartet</text><path d="M761 256 A150 150 0 0 1 1061 256 Z" fill="#171411" stroke="#3a322b"/><path d="M798.0 256 A113.0 113.0 0 0 1 1024.0 256" fill="none" stroke="#3a322b" stroke-dasharray="2 5" opacity="0.7"/><path d="M772.0 256 A139.0 139.0 0 0 1 1050.0 256" fill="none" stroke="#3a322b" stroke-dasharray="2 5" opacity="0.7"/><rect x="895" y="238" width="32" height="16" rx="3" fill="#342d27" stroke="#3a322b"/><circle cx="911" cy="246" r="4" fill="#a89a84"/><circle cx="829.1" cy="198.6" r="13" fill="#d39a5a" opacity="0.22"/><circle cx="829.1" cy="198.6" r="9" fill="#d39a5a" opacity="1.0"/><line x1="829.1" y1="198.6" x2="786.5" y2="168.8" stroke="#d39a5a" stroke-width="1" opacity="0.35"/><text x="782.3" y="157.1" font-size="11" fill="#d39a5a" text-anchor="middle" font-weight="600" >Violins I  1</text><circle cx="873.5" cy="163.3" r="13" fill="#e3c46e" opacity="0.22"/><circle cx="873.5" cy="163.3" r="9" fill="#e3c46e" opacity="1.0"/><line x1="873.5" y1="163.3" x2="854.1" y2="115.1" stroke="#e3c46e" stroke-width="1" opacity="0.35"/><text x="850.3" y="109.8" font-size="11" fill="#e3c46e" text-anchor="middle" font-weight="600" >Violins II  1</text><circle cx="948.5" cy="163.3" r="13" fill="#a3b47c" opacity="0.22"/><circle cx="948.5" cy="163.3" r="9" fill="#a3b47c" opacity="1.0"/><line x1="948.5" y1="163.3" x2="967.9" y2="115.1" stroke="#a3b47c" stroke-width="1" opacity="0.35"/><text x="971.7" y="109.8" font-size="11" fill="#a3b47c" text-anchor="middle" font-weight="600" >Violas  1</text><circle cx="992.9" cy="198.6" r="13" fill="#cf7f6d" opacity="0.22"/><circle cx="992.9" cy="198.6" r="9" fill="#cf7f6d" opacity="1.0"/><line x1="992.9" y1="198.6" x2="1035.5" y2="168.8" stroke="#cf7f6d" stroke-width="1" opacity="0.35"/><text x="1043.7" y="157.1" font-size="11" fill="#cf7f6d" text-anchor="middle" font-weight="600" >Cellos  1</text><text x="750.0" y="282.0" font-size="10.5" fill="#a89a84" text-anchor="start" font-weight="400" >Small sizes from the same section engine: a string</text><text x="750.0" y="296.0" font-size="10.5" fill="#a89a84" text-anchor="start" font-weight="400" >quartet is 1 · 1 · 1 · 1 · 0.</text></svg>